<svg xmlns="http://www.w3.org/2000/svg" xmlns:xlink="http://www.w3.org/1999/xlink" viewBox="0 0 323.78 52.34"><defs><style>.cls-1{fill:url(#linear-gradient);}.cls-2{fill:url(#linear-gradient-2);}.cls-3,.cls-4{fill:none;}.cls-4{clip-rule:evenodd;}.cls-5{clip-path:url(#clip-path);}.cls-6{fill:#242021;}.cls-12,.cls-16,.cls-19,.cls-6,.cls-8{fill-rule:evenodd;}.cls-7{fill:#2b2a29;}.cls-8{fill:#ed2024;}.cls-9{mask:url(#mask);}.cls-10{fill:#ffed00;}.cls-11{mask:url(#mask-2);}.cls-12{fill:#2f7246;}.cls-13,.cls-19{fill:#e8bc42;}.cls-14{clip-path:url(#clip-path-2);}.cls-15{fill:url(#linear-gradient-3);}.cls-16{fill:#915e28;}.cls-17{clip-path:url(#clip-path-3);}.cls-18{fill:url(#linear-gradient-4);}.cls-20{clip-path:url(#clip-path-4);}.cls-21{fill:url(#linear-gradient-5);}.cls-22{clip-path:url(#clip-path-5);}.cls-23{fill:url(#linear-gradient-6);}.cls-24{clip-path:url(#clip-path-6);}.cls-25{fill:url(#linear-gradient-7);}</style><linearGradient id="linear-gradient" x1="2.23" y1="52.61" x2="2.23" y2="35.65" gradientTransform="translate(218.87 -26.17)" gradientUnits="userSpaceOnUse"><stop offset="0" stop-color="#fff"/><stop offset="1"/></linearGradient><linearGradient id="linear-gradient-2" x1="2.23" y1="33.47" x2="2.23" y2="50.44" gradientTransform="translate(218.87 -5.57)" xlink:href="#linear-gradient"/><clipPath id="clip-path" transform="translate(-1 -1)"><rect class="cls-3" width="325.78" height="54.34"/></clipPath><mask id="mask" x="218.87" y="5.57" width="2.47" height="20.6" maskUnits="userSpaceOnUse"><g transform="translate(-1 -1)"><rect class="cls-1" x="219.87" y="6.57" width="2.47" height="20.6"/></g></mask><mask id="mask-2" x="218.87" y="26.17" width="2.47" height="20.6" maskUnits="userSpaceOnUse"><g transform="translate(-1 -1)"><rect class="cls-2" x="219.87" y="27.17" width="2.47" height="20.6"/></g></mask><clipPath id="clip-path-2" transform="translate(-1 -1)"><polygon class="cls-4" points="45.15 25.43 45.15 31.32 50.74 29.65 49.93 26.89 50.74 23.75 45.15 25.43"/></clipPath><linearGradient id="linear-gradient-3" x1="49.71" y1="26.54" x2="43.98" y2="26.54" gradientUnits="userSpaceOnUse"><stop offset="0" stop-color="#d1a630"/><stop offset="0.48" stop-color="#f3c445"/><stop offset="1" stop-color="#d1a630"/></linearGradient><clipPath id="clip-path-3" transform="translate(-1 -1)"><polygon class="cls-4" points="8.66 31.32 8.66 25.43 3.07 23.75 3.88 26.89 3.07 29.65 8.66 31.32"/></clipPath><linearGradient id="linear-gradient-4" x1="2.11" y1="26.54" x2="7.83" y2="26.54" xlink:href="#linear-gradient-3"/><clipPath id="clip-path-4" transform="translate(-1 -1)"><path class="cls-4" d="M5,26.54v5.9a62.66,62.66,0,0,0,7.83,2.11,57.71,57.71,0,0,0,7.83.87V29.53a57.73,57.73,0,0,1-7.83-.88A59.39,59.39,0,0,1,5,26.54"/></clipPath><linearGradient id="linear-gradient-5" x1="4.09" y1="29.98" x2="20.13" y2="29.98" xlink:href="#linear-gradient-3"/><clipPath id="clip-path-5" transform="translate(-1 -1)"><path class="cls-4" d="M48.83,32.44v-5.9A47.12,47.12,0,0,1,41,28.86a43.06,43.06,0,0,1-7.83.67v5.89A42.18,42.18,0,0,0,41,34.75a48,48,0,0,0,7.83-2.31"/></clipPath><linearGradient id="linear-gradient-6" x1="32.28" y1="29.98" x2="48.32" y2="29.98" xlink:href="#linear-gradient-3"/><clipPath id="clip-path-6" transform="translate(-1 -1)"><path class="cls-4" d="M18,30.58V36.5a34.28,34.28,0,0,0,9,1.37,34.29,34.29,0,0,0,9-1.37V30.58a36.83,36.83,0,0,1-9,1.27A36.82,36.82,0,0,1,18,30.58"/></clipPath><linearGradient id="linear-gradient-7" x1="17.07" y1="33.22" x2="35.43" y2="33.22" xlink:href="#linear-gradient-3"/></defs><title>Asset 1</title><g id="Layer_2" data-name="Layer 2"><g id="Layer_1-2" data-name="Layer 1"><g class="cls-5"><polygon class="cls-6" points="323.78 38.7 235.74 38.7 235.73 39.57 323.76 39.61 323.78 38.7"/><path class="cls-7" d="M254,45.28l-.57-1.52-.55,1.52Zm1.52,1.62h-.9l-.35-.93h-1.64l-.35.93h-.87L253,42.8h.88Z" transform="translate(-1 -1)"/><path class="cls-7" d="M258.49,44.81l-.77.14a.62.62,0,0,0-.18-.35.57.57,0,0,0-.36-.11.59.59,0,0,0-.47.2,1.07,1.07,0,0,0-.17.68,1.21,1.21,0,0,0,.18.75.59.59,0,0,0,.47.22.57.57,0,0,0,.37-.13.82.82,0,0,0,.2-.44l.77.13a1.38,1.38,0,0,1-.46.81,1.43,1.43,0,0,1-.91.27,1.37,1.37,0,0,1-1-.41,1.61,1.61,0,0,1-.39-1.14,1.59,1.59,0,0,1,.39-1.15,1.36,1.36,0,0,1,1.05-.41,1.46,1.46,0,0,1,.86.23,1.25,1.25,0,0,1,.46.71" transform="translate(-1 -1)"/><path class="cls-7" d="M261.68,44.81l-.78.14a.56.56,0,0,0-.17-.35.59.59,0,0,0-.36-.11.57.57,0,0,0-.47.2,1,1,0,0,0-.18.68,1.21,1.21,0,0,0,.18.75.61.61,0,0,0,.48.22.53.53,0,0,0,.36-.13.7.7,0,0,0,.2-.44l.78.13A1.26,1.26,0,0,1,260.34,47a1.39,1.39,0,0,1-1-.41,1.65,1.65,0,0,1-.38-1.14,1.59,1.59,0,0,1,.39-1.15,1.33,1.33,0,0,1,1.05-.41,1.48,1.48,0,0,1,.86.23,1.36,1.36,0,0,1,.46.71" transform="translate(-1 -1)"/><path class="cls-7" d="M263,46.9h-.78v-3H263v.42a1,1,0,0,1,.34-.39.62.62,0,0,1,.34-.09,1,1,0,0,1,.51.15l-.24.68a.66.66,0,0,0-.37-.13.45.45,0,0,0-.28.09.57.57,0,0,0-.18.33,4.87,4.87,0,0,0-.07,1Z" transform="translate(-1 -1)"/><path class="cls-7" d="M266.27,45.17a.79.79,0,0,0-.18-.52.54.54,0,0,0-.41-.18.52.52,0,0,0-.42.19.68.68,0,0,0-.16.51Zm0,.79.78.14a1.27,1.27,0,0,1-.47.65,1.42,1.42,0,0,1-.82.23,1.31,1.31,0,0,1-1.14-.51,1.68,1.68,0,0,1-.3-1,1.62,1.62,0,0,1,.39-1.15,1.26,1.26,0,0,1,1-.42,1.3,1.3,0,0,1,1.05.44,2,2,0,0,1,.37,1.34h-2a.82.82,0,0,0,.19.54.59.59,0,0,0,.45.2.52.52,0,0,0,.31-.1A.66.66,0,0,0,266.22,46Z" transform="translate(-1 -1)"/><path class="cls-7" d="M268.32,45.36a1.33,1.33,0,0,0,.13.69.59.59,0,0,0,.53.31.59.59,0,0,0,.46-.23,1.08,1.08,0,0,0,.19-.7,1.15,1.15,0,0,0-.19-.74.6.6,0,0,0-.93,0,1,1,0,0,0-.19.67m2.09,1.54h-.72v-.43a1.39,1.39,0,0,1-.43.38,1.2,1.2,0,0,1-.5.13,1.11,1.11,0,0,1-.88-.42,2,2,0,0,1,0-2.3,1.14,1.14,0,0,1,.9-.39,1.12,1.12,0,0,1,.86.41V42.8h.78Z" transform="translate(-1 -1)"/><path class="cls-7" d="M271.19,46.9v-3H272v3Zm0-3.37V42.8H272v.73Z" transform="translate(-1 -1)"/><path class="cls-7" d="M274.13,43.93v.62h-.53v1.21a3.48,3.48,0,0,0,0,.42.14.14,0,0,0,.07.1.2.2,0,0,0,.13,0,1,1,0,0,0,.32-.07l.07.61a1.56,1.56,0,0,1-.62.12,1.12,1.12,0,0,1-.38-.07.5.5,0,0,1-.25-.19.67.67,0,0,1-.11-.31,3.12,3.12,0,0,1,0-.55V44.55h-.36v-.62h.36v-.59l.79-.46v1Z" transform="translate(-1 -1)"/><path class="cls-7" d="M276.45,45.17a.79.79,0,0,0-.18-.52.54.54,0,0,0-.41-.18.52.52,0,0,0-.42.19.68.68,0,0,0-.16.51Zm-.05.79.79.14a1.28,1.28,0,0,1-.48.65,1.42,1.42,0,0,1-.82.23,1.32,1.32,0,0,1-1.14-.51,1.68,1.68,0,0,1-.3-1,1.62,1.62,0,0,1,.39-1.15,1.27,1.27,0,0,1,1-.42,1.29,1.29,0,0,1,1,.44,1.92,1.92,0,0,1,.37,1.34h-2a.82.82,0,0,0,.19.54.59.59,0,0,0,.45.2.5.5,0,0,0,.31-.1A.59.59,0,0,0,276.4,46Z" transform="translate(-1 -1)"/><path class="cls-7" d="M278.5,45.36a1.33,1.33,0,0,0,.13.69.59.59,0,0,0,.53.31.59.59,0,0,0,.46-.23,1.08,1.08,0,0,0,.19-.7,1.22,1.22,0,0,0-.18-.74.59.59,0,0,0-.48-.22.57.57,0,0,0-.46.22,1,1,0,0,0-.19.67m2.09,1.54h-.72v-.43a1.29,1.29,0,0,1-.43.38,1.2,1.2,0,0,1-.5.13,1.11,1.11,0,0,1-.88-.42,2,2,0,0,1,0-2.3,1.14,1.14,0,0,1,.9-.39,1.12,1.12,0,0,1,.86.41V42.8h.78Z" transform="translate(-1 -1)"/><path class="cls-7" d="M283,42.8h.83V45a4.69,4.69,0,0,0,0,.69.67.67,0,0,0,.25.4.86.86,0,0,0,.55.16.79.79,0,0,0,.52-.15.52.52,0,0,0,.21-.35,3.86,3.86,0,0,0,0-.7V42.8h.83V45a5,5,0,0,1-.07,1,1.09,1.09,0,0,1-.24.52,1.21,1.21,0,0,1-.48.33,2.17,2.17,0,0,1-.79.13,2.26,2.26,0,0,1-.89-.14,1.36,1.36,0,0,1-.48-.35A1.33,1.33,0,0,1,283,46a5.25,5.25,0,0,1-.08-1Z" transform="translate(-1 -1)"/><path class="cls-7" d="M289.8,46.9H289V45.39a2.48,2.48,0,0,0-.05-.62.41.41,0,0,0-.16-.22.44.44,0,0,0-.28-.08.67.67,0,0,0-.37.11.55.55,0,0,0-.22.3,2.54,2.54,0,0,0-.06.68V46.9h-.79v-3h.73v.44a1.18,1.18,0,0,1,1-.5,1.21,1.21,0,0,1,.48.09.83.83,0,0,1,.33.24,1,1,0,0,1,.15.33,2.3,2.3,0,0,1,.05.53Z" transform="translate(-1 -1)"/><path class="cls-7" d="M290.59,46.9v-3h.78v3Zm0-3.37V42.8h.78v.73Z" transform="translate(-1 -1)"/><path class="cls-7" d="M293,46.9l-1.2-3h.83l.55,1.52.17.5.08-.25a2.41,2.41,0,0,1,.08-.25l.57-1.52h.81l-1.18,3Z" transform="translate(-1 -1)"/><path class="cls-7" d="M297.13,45.17a.74.74,0,0,0-.18-.52.52.52,0,0,0-.4-.18.54.54,0,0,0-.43.19.73.73,0,0,0-.16.51Zm-.05.79.79.14a1.28,1.28,0,0,1-.48.65,1.41,1.41,0,0,1-.81.23,1.33,1.33,0,0,1-1.15-.51,1.74,1.74,0,0,1-.29-1,1.66,1.66,0,0,1,.38-1.15,1.4,1.4,0,0,1,2,0,1.92,1.92,0,0,1,.37,1.34h-2a.82.82,0,0,0,.19.54.61.61,0,0,0,.45.2.5.5,0,0,0,.31-.1A.59.59,0,0,0,297.08,46Z" transform="translate(-1 -1)"/><path class="cls-7" d="M299.3,46.9h-.78v-3h.72v.42a1.26,1.26,0,0,1,.34-.39.67.67,0,0,1,.34-.09,1,1,0,0,1,.52.15l-.24.68a.69.69,0,0,0-.37-.13.43.43,0,0,0-.28.09.57.57,0,0,0-.18.33,4.22,4.22,0,0,0-.07,1Z" transform="translate(-1 -1)"/><path class="cls-7" d="M300.5,46.07l.79-.12a.56.56,0,0,0,.2.34.71.71,0,0,0,.43.12.8.8,0,0,0,.46-.11.25.25,0,0,0,.11-.21.2.2,0,0,0-.06-.15.6.6,0,0,0-.26-.1,4,4,0,0,1-1.21-.39.75.75,0,0,1-.35-.67.83.83,0,0,1,.3-.65,1.48,1.48,0,0,1,.95-.26,1.56,1.56,0,0,1,.9.2,1,1,0,0,1,.41.59l-.74.14a.44.44,0,0,0-.18-.27.66.66,0,0,0-.38-.1.87.87,0,0,0-.45.09.19.19,0,0,0-.09.16.17.17,0,0,0,.08.14,2.72,2.72,0,0,0,.74.23,2.12,2.12,0,0,1,.88.35.72.72,0,0,1,.25.58.89.89,0,0,1-.35.7,1.47,1.47,0,0,1-1,.3,1.71,1.71,0,0,1-1-.25,1.12,1.12,0,0,1-.46-.66" transform="translate(-1 -1)"/><path class="cls-7" d="M304,46.9v-3h.79v3Zm0-3.37V42.8h.79v.73Z" transform="translate(-1 -1)"/><path class="cls-7" d="M306.91,43.93v.62h-.54v1.21a2.64,2.64,0,0,0,0,.42.14.14,0,0,0,.07.1.2.2,0,0,0,.13,0,1,1,0,0,0,.32-.07l.07.61a1.56,1.56,0,0,1-.62.12,1.18,1.18,0,0,1-.39-.07.52.52,0,0,1-.24-.19.8.8,0,0,1-.12-.31c0-.09,0-.27,0-.55V44.55h-.36v-.62h.36v-.59l.78-.46v1Z" transform="translate(-1 -1)"/><path class="cls-7" d="M307.08,43.93h.84l.71,2.11.7-2.11h.81l-1.05,2.86-.18.52a2.29,2.29,0,0,1-.2.39.92.92,0,0,1-.22.22.83.83,0,0,1-.3.14,1.62,1.62,0,0,1-.4,0,2.3,2.3,0,0,1-.45,0l-.07-.62a1.48,1.48,0,0,0,.34,0,.47.47,0,0,0,.4-.16,1.22,1.22,0,0,0,.21-.41Z" transform="translate(-1 -1)"/><path class="cls-8" d="M300.49,25.9h7.36c0-.44-3.62-11-3.72-11.08-.51,1.31-3.65,10.93-3.64,11.07M288.92,37h7.56l2-5.33h11.36l2,5.33h7.65l-11-30.42-7.74,0Z" transform="translate(-1 -1)"/><polygon class="cls-8" points="316.28 17.19 318.72 17.23 318.74 5.58 316.31 5.54 316.28 17.19"/><polygon class="cls-8" points="311.7 10.15 311.66 12.6 323.31 12.62 323.35 10.19 311.7 10.15"/><path class="cls-7" d="M237.57,22.55a.25.25,0,0,1-.18-.08.28.28,0,0,1-.08-.2V6.7a.28.28,0,0,1,.08-.2.25.25,0,0,1,.18-.08h2.55a.31.31,0,0,1,.3.21l4.14,9.19s.06.07.09.06,0,0,0-.1l0-9.08a.28.28,0,0,1,.08-.2.25.25,0,0,1,.18-.08h2.5a.26.26,0,0,1,.19.08.27.27,0,0,1,.07.2V22.27a.27.27,0,0,1-.07.2.26.26,0,0,1-.19.08h-2.56a.35.35,0,0,1-.31-.21l-4.14-9.26q0-.08-.09-.06s0,0,0,.1l0,9.15a.27.27,0,0,1-.07.2.26.26,0,0,1-.19.08Z" transform="translate(-1 -1)"/><path class="cls-7" d="M253.61,17.32c0,.05,0,.08,0,.1a.12.12,0,0,0,.09,0h2.84a.12.12,0,0,0,.09,0s0-.05,0-.1l-1.44-6.55c0-.06,0-.08-.07-.08a.1.1,0,0,0-.06.08ZM258,22.55a.28.28,0,0,1-.28-.23l-.49-2.26a.11.11,0,0,0-.11-.09h-4c-.06,0-.09,0-.11.09l-.49,2.26a.3.3,0,0,1-.31.23h-2.61c-.18,0-.26-.1-.21-.3l3.88-15.6a.3.3,0,0,1,.3-.23h3.13a.3.3,0,0,1,.31.23l3.9,15.6,0,.09c0,.14-.07.21-.23.21Z" transform="translate(-1 -1)"/><path class="cls-7" d="M266.26,17.32c0,.05,0,.08,0,.1a.1.1,0,0,0,.08,0h2.85a.12.12,0,0,0,.09,0s0-.05,0-.1l-1.45-6.55c0-.06,0-.08-.06-.08a.1.1,0,0,0-.06.08Zm4.42,5.23a.28.28,0,0,1-.28-.23l-.5-2.26a.1.1,0,0,0-.1-.09h-4c-.06,0-.09,0-.11.09l-.5,2.26a.28.28,0,0,1-.3.23h-2.61q-.28,0-.21-.3l3.88-15.6a.28.28,0,0,1,.3-.23h3.13a.28.28,0,0,1,.3.23l3.91,15.6,0,.09c0,.14-.08.21-.23.21Z" transform="translate(-1 -1)"/><path class="cls-7" d="M279.94,22.73a5.2,5.2,0,0,1-2.59-.62,4.24,4.24,0,0,1-1.74-1.77,5.61,5.61,0,0,1-.61-2.68v-6.4a5.47,5.47,0,0,1,.61-2.64,4.28,4.28,0,0,1,1.74-1.76,5.2,5.2,0,0,1,2.59-.63,5.41,5.41,0,0,1,2.59.61,4.3,4.3,0,0,1,1.74,1.72,5.24,5.24,0,0,1,.61,2.58v.12a.35.35,0,0,1-.07.21.23.23,0,0,1-.19.09l-2.52.11c-.17,0-.26-.08-.26-.25v-.3a2.16,2.16,0,0,0-.52-1.52,1.93,1.93,0,0,0-2.76,0,2.16,2.16,0,0,0-.52,1.52v6.75a2.12,2.12,0,0,0,.52,1.51,2,2,0,0,0,2.76,0,2.12,2.12,0,0,0,.52-1.51v-.3c0-.17.09-.25.26-.25l2.52.11c.18,0,.26.06.26.17v.18a5.34,5.34,0,0,1-.61,2.6,4.17,4.17,0,0,1-1.74,1.74,5.3,5.3,0,0,1-2.59.61" transform="translate(-1 -1)"/><path class="cls-7" d="M241.29,37.31a4.6,4.6,0,0,1-2.17-.49,3.47,3.47,0,0,1-1.46-1.38,4.13,4.13,0,0,1-.51-2.07V28.29a4,4,0,0,1,.51-2.06,3.6,3.6,0,0,1,1.46-1.38,5.07,5.07,0,0,1,4.33,0,3.51,3.51,0,0,1,1.46,1.34,3.65,3.65,0,0,1,.52,1.95v.39a.21.21,0,0,1-.22.22H243.1a.21.21,0,0,1-.22-.22v-.38a1.6,1.6,0,0,0-.43-1.14,1.71,1.71,0,0,0-2.33,0,1.76,1.76,0,0,0-.44,1.23v5.17a1.66,1.66,0,0,0,.46,1.23,1.59,1.59,0,0,0,1.2.47,1.57,1.57,0,0,0,1.13-.41,1.51,1.51,0,0,0,.43-1.14V32.45a.08.08,0,0,0-.09-.09H241.4a.21.21,0,0,1-.16-.07.2.2,0,0,1-.06-.15V30.49a.2.2,0,0,1,.06-.15.25.25,0,0,1,.16-.06h3.81a.25.25,0,0,1,.16.06.2.2,0,0,1,.06.15v2.88a3.77,3.77,0,0,1-1.13,2.87,4.21,4.21,0,0,1-3,1.07" transform="translate(-1 -1)"/><path class="cls-7" d="M249.68,26.7a.08.08,0,0,0-.09.09v3.07a.08.08,0,0,0,.09.09h1.57a1.45,1.45,0,0,0,1.09-.44,1.69,1.69,0,0,0,.41-1.17,1.73,1.73,0,0,0-.41-1.2,1.41,1.41,0,0,0-1.09-.44ZM253,37.17a.25.25,0,0,1-.26-.18l-1.82-5s-.06-.07-.09-.07h-1.14a.08.08,0,0,0-.09.09V37a.2.2,0,0,1-.06.15.26.26,0,0,1-.16.07h-2.11a.24.24,0,0,1-.16-.07A.2.2,0,0,1,247,37V24.71a.25.25,0,0,1,.06-.16.23.23,0,0,1,.16-.06h4.41a3.75,3.75,0,0,1,1.9.48,3.27,3.27,0,0,1,1.28,1.35,4.26,4.26,0,0,1,.45,2,3.85,3.85,0,0,1-.51,2,3.25,3.25,0,0,1-1.44,1.28s-.06.06,0,.12l2.06,5.19a.15.15,0,0,1,0,.09c0,.11-.06.17-.2.17Z" transform="translate(-1 -1)"/><path class="cls-7" d="M259.91,33.06a.07.07,0,0,0,0,.08l.07,0h2.39a.11.11,0,0,0,.07,0s0,0,0-.08l-1.21-5.13c0-.05,0-.07-.06-.07a.1.1,0,0,0,0,.07Zm3.71,4.11a.24.24,0,0,1-.24-.18L263,35.21a.08.08,0,0,0-.09-.07H259.5a.08.08,0,0,0-.09.07L259,37a.24.24,0,0,1-.25.18h-2.19q-.24,0-.18-.24l3.25-12.24a.24.24,0,0,1,.26-.18h2.62a.23.23,0,0,1,.25.18L266,36.93l0,.07c0,.11-.06.17-.2.17Z" transform="translate(-1 -1)"/><path class="cls-7" d="M270,34.89a.08.08,0,0,0,.09.09l1.49,0a1.37,1.37,0,0,0,1.08-.48,1.91,1.91,0,0,0,.43-1.27V28.47a1.89,1.89,0,0,0-.41-1.29,1.4,1.4,0,0,0-1.1-.48h-1.49a.08.08,0,0,0-.09.09Zm-2.33,2.28a.21.21,0,0,1-.15-.07.18.18,0,0,1-.07-.15V24.73a.2.2,0,0,1,.07-.16.2.2,0,0,1,.15-.06h3.89a4.88,4.88,0,0,1,2.14.45,3.35,3.35,0,0,1,1.44,1.29,3.67,3.67,0,0,1,.5,1.93V33.5a3.7,3.7,0,0,1-.5,1.93,3.39,3.39,0,0,1-1.44,1.28,4.74,4.74,0,0,1-2.14.46Z" transform="translate(-1 -1)"/><path class="cls-7" d="M285.05,26.48a.21.21,0,0,1-.07.15.18.18,0,0,1-.15.07H280a.08.08,0,0,0-.09.09v2.82a.08.08,0,0,0,.09.09h3a.25.25,0,0,1,.16.06.23.23,0,0,1,.06.16v1.75a.2.2,0,0,1-.06.15.21.21,0,0,1-.16.07h-3a.08.08,0,0,0-.09.09v2.91A.08.08,0,0,0,280,35h4.85A.2.2,0,0,1,285,35a.21.21,0,0,1,.07.15V37a.24.24,0,0,1-.22.22h-7.27a.21.21,0,0,1-.15-.07.18.18,0,0,1-.07-.15V24.73a.2.2,0,0,1,.07-.16.2.2,0,0,1,.15-.06h7.27a.2.2,0,0,1,.15.06.24.24,0,0,1,.07.16Z" transform="translate(-1 -1)"/><g class="cls-9"><rect class="cls-10" x="218.87" y="5.57" width="2.47" height="20.6"/></g><g class="cls-11"><rect class="cls-10" x="218.87" y="26.17" width="2.47" height="20.6"/></g><path class="cls-12" d="M168.1,37.87v.29a1.69,1.69,0,0,0-.87.33,9.09,9.09,0,0,0-1.32,1.92l-2.47,4.14V47.3a3.85,3.85,0,0,0,.09,1.1.84.84,0,0,0,.37.38,1.37,1.37,0,0,0,.72.17h.64v.29H158.9V49h.59a1.49,1.49,0,0,0,.79-.18.78.78,0,0,0,.34-.41,3.55,3.55,0,0,0,.09-1.06V45L158,40.13a7.42,7.42,0,0,0-1.12-1.71,1.4,1.4,0,0,0-.88-.26v-.29h5.45v.29h-.24a1.34,1.34,0,0,0-.7.14.4.4,0,0,0-.19.31,5.09,5.09,0,0,0,.67,1.54l2.06,3.75,2-3.42a4.57,4.57,0,0,0,.76-1.69.44.44,0,0,0-.22-.38,2,2,0,0,0-1-.25v-.29Zm-12.82,0v3.07H155a4.82,4.82,0,0,0-.6-1.53,2.28,2.28,0,0,0-.9-.74,2.85,2.85,0,0,0-1.11-.15h-.86V47.3a3.9,3.9,0,0,0,.09,1.1.92.92,0,0,0,.38.38,1.44,1.44,0,0,0,.75.17h.38v.29H147.2V49h.37a1.52,1.52,0,0,0,.79-.18.83.83,0,0,0,.34-.41,3.55,3.55,0,0,0,.09-1.06V38.52H148a2.4,2.4,0,0,0-1.66.48,3.25,3.25,0,0,0-.91,1.94h-.33V37.87ZM144,49v.29h-5.92V49h.38a1.54,1.54,0,0,0,.79-.18.73.73,0,0,0,.33-.41,3.41,3.41,0,0,0,.1-1.06V39.8a3.67,3.67,0,0,0-.1-1.09.81.81,0,0,0-.37-.39,1.44,1.44,0,0,0-.75-.16h-.38v-.29H144v.29h-.38a1.61,1.61,0,0,0-.78.17.78.78,0,0,0-.34.41,3.41,3.41,0,0,0-.1,1.06v7.5a3.75,3.75,0,0,0,.1,1.1.89.89,0,0,0,.37.38,1.49,1.49,0,0,0,.75.17ZM136.3,37.61l.09,3.79H136a3.88,3.88,0,0,0-1.19-2.29,3,3,0,0,0-2.06-.87,1.9,1.9,0,0,0-1.36.46,1.38,1.38,0,0,0-.5,1,1.27,1.27,0,0,0,.18.67,2.87,2.87,0,0,0,.78.78,18.4,18.4,0,0,0,1.82,1A8,8,0,0,1,136.4,44a3.11,3.11,0,0,1,.69,2A3.22,3.22,0,0,1,136,48.47a4,4,0,0,1-2.82,1,4.76,4.76,0,0,1-1-.11,6.72,6.72,0,0,1-1.2-.42,1.83,1.83,0,0,0-.66-.16.82.82,0,0,0-.46.17,1.09,1.09,0,0,0-.4.52h-.29V45.21h.29A4.93,4.93,0,0,0,130.84,48a3.37,3.37,0,0,0,2.27.95,2.13,2.13,0,0,0,1.5-.51,1.57,1.57,0,0,0,.56-1.19,1.51,1.51,0,0,0-.22-.78,2.25,2.25,0,0,0-.65-.71,9.78,9.78,0,0,0-1.54-.89,12.65,12.65,0,0,1-2.23-1.3,4,4,0,0,1-1-1.19,3,3,0,0,1-.36-1.46,3.08,3.08,0,0,1,1-2.32,3.5,3.5,0,0,1,2.51-1,4.18,4.18,0,0,1,1.07.13,5.25,5.25,0,0,1,1,.37,2.26,2.26,0,0,0,.8.27.44.44,0,0,0,.34-.13,1.62,1.62,0,0,0,.23-.64Zm-15.89.89v5h.48a5.48,5.48,0,0,0,1.75-.21,1.8,1.8,0,0,0,.91-.77,2.83,2.83,0,0,0,.33-1.45,2.61,2.61,0,0,0-.61-1.91,2.68,2.68,0,0,0-2-.62Zm0,5.56v3.21a3.23,3.23,0,0,0,.12,1.15.78.78,0,0,0,.4.38A2.53,2.53,0,0,0,122,49v.29h-5.81V49a2.59,2.59,0,0,0,1.07-.15.9.9,0,0,0,.39-.38,3.36,3.36,0,0,0,.11-1.15V39.84a3.4,3.4,0,0,0-.11-1.16.78.78,0,0,0-.4-.38,2.76,2.76,0,0,0-1.06-.14v-.29h5.28a11.63,11.63,0,0,1,3,.28A3.06,3.06,0,0,1,126,39.21a2.83,2.83,0,0,1,.6,1.8,2.69,2.69,0,0,1-.91,2.08,3.61,3.61,0,0,1-1.62.78l2.73,3.85a6,6,0,0,0,.77.93,1.43,1.43,0,0,0,.8.28v.31h-3.58l-3.67-5.18Zm-11.34-5.54v4.63h.23a1.8,1.8,0,0,0,1.57-.68,4.11,4.11,0,0,0,.62-2h.33v6h-.33a4.43,4.43,0,0,0-.42-1.59,1.87,1.87,0,0,0-.75-.83,2.77,2.77,0,0,0-1.25-.22V47a4.1,4.1,0,0,0,.09,1.15.68.68,0,0,0,.29.34,1.42,1.42,0,0,0,.71.13h.68a3.65,3.65,0,0,0,3.93-3h.31l-.51,3.61h-9.82V49h.38a1.52,1.52,0,0,0,.79-.18.78.78,0,0,0,.34-.41,3.55,3.55,0,0,0,.09-1.06V39.8a5.43,5.43,0,0,0,0-.95.78.78,0,0,0-.3-.46,1.5,1.5,0,0,0-.87-.23h-.38v-.29h9.51v3.36h-.33a4,4,0,0,0-.68-1.77,2.49,2.49,0,0,0-1.24-.79,6.67,6.67,0,0,0-1.75-.15Zm-4.84-.65v.29a1.88,1.88,0,0,0-1.11.66,10.86,10.86,0,0,0-1.05,2l-3.89,8.7H97.9l-3.87-9a12.34,12.34,0,0,0-.94-1.93,1.38,1.38,0,0,0-.91-.36v-.29h5.43v.29h-.19a1.8,1.8,0,0,0-1,.19.4.4,0,0,0-.2.37,1.08,1.08,0,0,0,.07.36c0,.14.2.51.45,1.12l2.43,5.65,2.23-5c.27-.62.44-1,.5-1.24a2,2,0,0,0,.09-.53.77.77,0,0,0-.13-.45.83.83,0,0,0-.4-.3,2.72,2.72,0,0,0-.95-.14v-.29ZM91.61,49v.29H85.69V49h.37a1.55,1.55,0,0,0,.8-.18.77.77,0,0,0,.33-.41,3.55,3.55,0,0,0,.09-1.06V39.8a3.81,3.81,0,0,0-.09-1.09.81.81,0,0,0-.37-.39,1.48,1.48,0,0,0-.76-.16h-.37v-.29h5.92v.29h-.38a1.65,1.65,0,0,0-.79.17.89.89,0,0,0-.34.41A3.55,3.55,0,0,0,90,39.8v7.5a3.42,3.42,0,0,0,.1,1.1.84.84,0,0,0,.37.38,1.49,1.49,0,0,0,.75.17ZM77.22,37.87l5.6,7V40a2.4,2.4,0,0,0-.29-1.4,1.61,1.61,0,0,0-1.35-.47v-.29h3.75v.29a2.82,2.82,0,0,0-1,.24,1,1,0,0,0-.38.48A3.14,3.14,0,0,0,83.44,40V49.5h-.28L75.48,40v7.26a1.61,1.61,0,0,0,.45,1.33A1.67,1.67,0,0,0,77,49h.27v.29h-4V49a1.41,1.41,0,0,0,1.68-1.68V39.22l-.23-.29a2.32,2.32,0,0,0-.64-.61,1.81,1.81,0,0,0-.8-.16v-.29ZM61,37.87h5.86v.29h-.29a1.91,1.91,0,0,0-.91.14.78.78,0,0,0-.36.38,4.21,4.21,0,0,0-.1,1.23v5.56a5.75,5.75,0,0,0,.23,2,1.89,1.89,0,0,0,.75.82,2.51,2.51,0,0,0,1.34.33,2.85,2.85,0,0,0,1.57-.42,2.52,2.52,0,0,0,1-1.14,7.09,7.09,0,0,0,.32-2.54V39.91a2.82,2.82,0,0,0-.16-1.1,1,1,0,0,0-.4-.46,2.41,2.41,0,0,0-1.07-.19v-.29h3.93v.29h-.24a1.49,1.49,0,0,0-.79.19,1.08,1.08,0,0,0-.46.58,3.06,3.06,0,0,0-.11,1v4.31a11.49,11.49,0,0,1-.26,2.89,3.23,3.23,0,0,1-1.28,1.64,4.64,4.64,0,0,1-2.79.75,5.33,5.33,0,0,1-2.28-.4,3.35,3.35,0,0,1-1.55-1.37,4.8,4.8,0,0,1-.45-2.26V39.91a4.08,4.08,0,0,0-.11-1.23.82.82,0,0,0-.37-.39,2.35,2.35,0,0,0-1-.13Zm144.51-9-.43,4H195v-.29h.38a1.52,1.52,0,0,0,.79-.18.75.75,0,0,0,.34-.41,3.5,3.5,0,0,0,.09-1.06V23.4a3.81,3.81,0,0,0-.09-1.09.91.91,0,0,0-.37-.39,1.51,1.51,0,0,0-.76-.16H195v-.29H201v.29h-.5a1.58,1.58,0,0,0-.8.18.8.8,0,0,0-.34.4,3.59,3.59,0,0,0-.09,1.06v7.26a3.58,3.58,0,0,0,.1,1.11.64.64,0,0,0,.39.36,4.1,4.1,0,0,0,1,.07h.94a3.21,3.21,0,0,0,1.5-.31,2.78,2.78,0,0,0,1-1,8,8,0,0,0,.83-2ZM189.1,29l-1.69-3.87L185.67,29Zm.27.62h-4l-.49,1.11a2.41,2.41,0,0,0-.23.92.76.76,0,0,0,.38.71,3.26,3.26,0,0,0,1.11.21v.29h-3.77v-.29a1.78,1.78,0,0,0,1-.51,6.76,6.76,0,0,0,1-1.74l4.06-9.06h.16l4.1,9.31a5.68,5.68,0,0,0,1,1.69,1.3,1.3,0,0,0,.81.31v.29H189v-.29h.23a1.75,1.75,0,0,0,.93-.19.46.46,0,0,0,.18-.39.93.93,0,0,0,0-.32A6.76,6.76,0,0,0,190,31Zm-15.24-8.13,5.6,7V23.63a2.33,2.33,0,0,0-.3-1.4,1.6,1.6,0,0,0-1.35-.47v-.29h3.76v.29a2.82,2.82,0,0,0-1,.24,1.06,1.06,0,0,0-.39.48,3.44,3.44,0,0,0-.13,1.15V33.1h-.29l-7.67-9.48v7.25a1.61,1.61,0,0,0,.45,1.33,1.64,1.64,0,0,0,1,.35h.27v.29h-4v-.29a1.86,1.86,0,0,0,1.31-.39,1.81,1.81,0,0,0,.37-1.29v-8l-.24-.29a2.31,2.31,0,0,0-.63-.61,1.85,1.85,0,0,0-.8-.16v-.29Zm-10.89.39a2.57,2.57,0,0,0-2.38,1.59,8.35,8.35,0,0,0-.67,3.75,7.27,7.27,0,0,0,1,4.29,2.33,2.33,0,0,0,2,1,2.41,2.41,0,0,0,1.45-.42,3.36,3.36,0,0,0,1.15-1.71,9.59,9.59,0,0,0,.41-3.06,10.15,10.15,0,0,0-.42-3.37,3.3,3.3,0,0,0-1.07-1.58A2.61,2.61,0,0,0,163.24,21.86Zm-.1-.53a5.64,5.64,0,0,1,6.11,5.79,6,6,0,0,1-1.27,3.8,5.61,5.61,0,0,1-4.73,2.18A5.77,5.77,0,0,1,158.5,31a6,6,0,0,1-1.32-3.89,5.62,5.62,0,0,1,1.72-4.21A5.46,5.46,0,0,1,163.14,21.33Zm-7,11.22v.29h-5.92v-.29h.38a1.54,1.54,0,0,0,.79-.18.69.69,0,0,0,.33-.41,3.37,3.37,0,0,0,.1-1.06V23.4a3.67,3.67,0,0,0-.1-1.09.81.81,0,0,0-.37-.39,1.44,1.44,0,0,0-.75-.16h-.38v-.29h5.92v.29h-.38a1.5,1.5,0,0,0-.78.18.76.76,0,0,0-.34.4,3.46,3.46,0,0,0-.1,1.06v7.5a3.75,3.75,0,0,0,.1,1.1.89.89,0,0,0,.37.38,1.49,1.49,0,0,0,.75.17Zm-6.88-11.08v3.07h-.29a4.82,4.82,0,0,0-.6-1.53,2.18,2.18,0,0,0-.89-.74,3,3,0,0,0-1.12-.15h-.86V30.9a3.75,3.75,0,0,0,.1,1.1.89.89,0,0,0,.37.38,1.5,1.5,0,0,0,.76.17h.37v.29h-5.92v-.29h.38a1.57,1.57,0,0,0,.79-.18.84.84,0,0,0,.34-.41,3.5,3.5,0,0,0,.09-1.06V22.12h-.83a2.36,2.36,0,0,0-1.65.48,3.23,3.23,0,0,0-.92,1.94H139V21.47ZM134.14,29l-1.69-3.87L130.71,29Zm.27.62h-4l-.49,1.11a2.45,2.45,0,0,0-.24.92.76.76,0,0,0,.39.71,3.26,3.26,0,0,0,1.11.21v.29h-3.77v-.29a1.78,1.78,0,0,0,1-.51,6.76,6.76,0,0,0,1-1.74l4.06-9.06h.16l4.1,9.31a5.68,5.68,0,0,0,1,1.69,1.3,1.3,0,0,0,.81.31v.29H134v-.29h.23a1.75,1.75,0,0,0,.93-.19.46.46,0,0,0,.18-.39.93.93,0,0,0-.05-.32A6.76,6.76,0,0,0,135,31Zm-15.24-8.13,5.6,7V23.63a2.33,2.33,0,0,0-.3-1.4,1.61,1.61,0,0,0-1.35-.47v-.29h3.76v.29a2.75,2.75,0,0,0-1,.24,1,1,0,0,0-.39.48,3.38,3.38,0,0,0-.14,1.15V33.1h-.28l-7.67-9.48v7.25a1.61,1.61,0,0,0,.44,1.33,1.67,1.67,0,0,0,1,.35h.27v.29h-4.05v-.29a1.86,1.86,0,0,0,1.31-.39,1.86,1.86,0,0,0,.37-1.29v-8l-.24-.29a2.19,2.19,0,0,0-.64-.61,1.8,1.8,0,0,0-.79-.16v-.29Zm-12.09.63v5h.48a5.41,5.41,0,0,0,1.74-.21,1.76,1.76,0,0,0,.91-.77,2.8,2.8,0,0,0,.33-1.45,2.65,2.65,0,0,0-.6-1.91,2.68,2.68,0,0,0-2-.62Zm0,5.56v3.21a3.61,3.61,0,0,0,.11,1.15.82.82,0,0,0,.4.38,2.59,2.59,0,0,0,1.07.15v.29h-5.82v-.29a2.53,2.53,0,0,0,1.07-.15.87.87,0,0,0,.4-.38,3.65,3.65,0,0,0,.11-1.15V23.44a3.69,3.69,0,0,0-.11-1.16.87.87,0,0,0-.4-.38,2.83,2.83,0,0,0-1.07-.14v-.29h5.29a11.55,11.55,0,0,1,3,.28,3,3,0,0,1,1.56,1.06,2.78,2.78,0,0,1,.61,1.8,2.7,2.7,0,0,1-.91,2.08,3.72,3.72,0,0,1-1.62.78l2.72,3.85a6.12,6.12,0,0,0,.77.93,1.48,1.48,0,0,0,.8.28v.31h-3.58l-3.67-5.18ZM95.74,22.12v4.63H96a1.82,1.82,0,0,0,1.57-.68,4.22,4.22,0,0,0,.62-2h.33v6h-.33a4.71,4.71,0,0,0-.42-1.6A1.83,1.83,0,0,0,97,27.6a2.87,2.87,0,0,0-1.24-.22v3.2a4.77,4.77,0,0,0,.08,1.15.65.65,0,0,0,.3.34,1.38,1.38,0,0,0,.7.13h.68a4.14,4.14,0,0,0,2.56-.73,4,4,0,0,0,1.37-2.24h.31l-.51,3.61H91.42v-.29h.37a1.55,1.55,0,0,0,.8-.18.78.78,0,0,0,.33-.41A3.5,3.5,0,0,0,93,30.9V23.4a5.9,5.9,0,0,0,0-.95.74.74,0,0,0-.31-.45,1.41,1.41,0,0,0-.87-.24h-.37v-.29h9.5v3.36h-.32a4.15,4.15,0,0,0-.68-1.77,2.59,2.59,0,0,0-1.24-.79,6.76,6.76,0,0,0-1.76-.15Zm-5.28-.65v3.07h-.29a4.82,4.82,0,0,0-.6-1.53,2.28,2.28,0,0,0-.9-.74,2.85,2.85,0,0,0-1.11-.15H86.7V30.9a3.42,3.42,0,0,0,.1,1.1.84.84,0,0,0,.37.38,1.45,1.45,0,0,0,.76.17h.37v.29H82.38v-.29h.37a1.52,1.52,0,0,0,.79-.18.79.79,0,0,0,.34-.41A3.5,3.5,0,0,0,84,30.9V22.12h-.82a2.4,2.4,0,0,0-1.66.48,3.28,3.28,0,0,0-.91,1.94h-.33V21.47Zm-18.95,0,5.6,7V23.63a2.43,2.43,0,0,0-.29-1.4,1.62,1.62,0,0,0-1.36-.47v-.29h3.76v.29a2.82,2.82,0,0,0-1,.24,1.06,1.06,0,0,0-.39.48,3.44,3.44,0,0,0-.13,1.15V33.1h-.29l-7.67-9.48v7.25a1.61,1.61,0,0,0,.45,1.33,1.64,1.64,0,0,0,1,.35h.27v.29h-4v-.29a1.86,1.86,0,0,0,1.31-.39,1.81,1.81,0,0,0,.37-1.29v-8l-.24-.29a2.31,2.31,0,0,0-.63-.61,1.85,1.85,0,0,0-.8-.16v-.29ZM66.83,32.55v.29H60.91v-.29h.38a1.52,1.52,0,0,0,.79-.18.75.75,0,0,0,.34-.41,3.5,3.5,0,0,0,.09-1.06V23.4a3.81,3.81,0,0,0-.09-1.09.86.86,0,0,0-.37-.39,1.51,1.51,0,0,0-.76-.16h-.38v-.29h5.92v.29h-.37a1.52,1.52,0,0,0-.79.18.8.8,0,0,0-.34.4,3.59,3.59,0,0,0-.09,1.06v7.5a3.9,3.9,0,0,0,.09,1.1.92.92,0,0,0,.38.38,1.44,1.44,0,0,0,.75.17Zm45.38-20-1.69-3.87-1.74,3.87Zm.27.62h-4l-.5,1.11a2.41,2.41,0,0,0-.23.92.8.8,0,0,0,.38.72,3.66,3.66,0,0,0,1.12.2v.29H105.5v-.29a1.72,1.72,0,0,0,1-.51,6.76,6.76,0,0,0,1-1.74l4.06-9.06h.16l4.1,9.32a5.73,5.73,0,0,0,1,1.68,1.32,1.32,0,0,0,.81.31v.29h-5.49v-.29h.22a1.66,1.66,0,0,0,.93-.19.46.46,0,0,0,.18-.39.93.93,0,0,0-.05-.32s-.09-.26-.25-.63Zm-15-7.5v8.87a3.36,3.36,0,0,0,.07.87.48.48,0,0,0,.23.24,1.41,1.41,0,0,0,.65.13,2.53,2.53,0,0,0,2.14-1,6.51,6.51,0,0,0,1-4,7.49,7.49,0,0,0-.69-3.49A2.92,2.92,0,0,0,99.53,6,5.65,5.65,0,0,0,97.52,5.7ZM93.2,16.44v-.29h.37a1.43,1.43,0,0,0,.76-.16.88.88,0,0,0,.39-.42,4.27,4.27,0,0,0,.07-1.07V7a3.85,3.85,0,0,0-.09-1.1.75.75,0,0,0-.37-.38,1.38,1.38,0,0,0-.76-.17H93.2V5.07h5.08a8.15,8.15,0,0,1,3.28.55,4.9,4.9,0,0,1,2.3,2.05,6.23,6.23,0,0,1,.78,3.12,6.11,6.11,0,0,1-.39,2.21,4.71,4.71,0,0,1-2.4,2.72,7.67,7.67,0,0,1-2,.62,9,9,0,0,1-1.61.1Zm-.64-.29v.29H86.64v-.29H87a1.52,1.52,0,0,0,.79-.18.76.76,0,0,0,.34-.4,3.63,3.63,0,0,0,.09-1.07V7a3.85,3.85,0,0,0-.09-1.1.8.8,0,0,0-.37-.38A1.4,1.4,0,0,0,87,5.36h-.38V5.07h5.92v.29h-.37a1.52,1.52,0,0,0-.79.18.8.8,0,0,0-.34.4A3.63,3.63,0,0,0,91,7V14.5a3.9,3.9,0,0,0,.09,1.1.87.87,0,0,0,.38.38,1.44,1.44,0,0,0,.75.17ZM79.67,5.46a2.58,2.58,0,0,0-2.38,1.59,8.51,8.51,0,0,0-.66,3.75,7.19,7.19,0,0,0,1,4.29,2.32,2.32,0,0,0,2,1,2.45,2.45,0,0,0,1.44-.41,3.45,3.45,0,0,0,1.16-1.72,9.54,9.54,0,0,0,.41-3.06,10.15,10.15,0,0,0-.42-3.37,3.3,3.3,0,0,0-1.07-1.58A2.62,2.62,0,0,0,79.67,5.46Zm-.1-.53a5.64,5.64,0,0,1,6.12,5.79,6.06,6.06,0,0,1-1.27,3.8,5.65,5.65,0,0,1-4.74,2.18,5.72,5.72,0,0,1-4.74-2.08,6,6,0,0,1-1.33-3.89,5.66,5.66,0,0,1,1.72-4.21A5.48,5.48,0,0,1,79.57,4.93Zm-14.74.14,5.6,7V7.23a2.35,2.35,0,0,0-.29-1.4,1.61,1.61,0,0,0-1.35-.47V5.07h3.75v.29a2.82,2.82,0,0,0-1,.24,1,1,0,0,0-.38.48,3.42,3.42,0,0,0-.14,1.15V16.7h-.28L63.09,7.22v7.25a1.6,1.6,0,0,0,.45,1.33,1.67,1.67,0,0,0,1,.35h.27v.29H60.79v-.29a1.89,1.89,0,0,0,1.32-.39,1.84,1.84,0,0,0,.36-1.29v-8l-.23-.3a2.19,2.19,0,0,0-.64-.61,1.8,1.8,0,0,0-.79-.16V5.07Z" transform="translate(-1 -1)"/><path class="cls-13" d="M6.2,39.73a2.36,2.36,0,0,0,.2.78c.72,1.52,1-.3.92-1,0-.34-.46-2-.9-1.11a2.5,2.5,0,0,0-.22,1.32m-2.92.82a1.22,1.22,0,0,0,2.14-.15c.27-.46-.85-.84-1.15-.82S2.93,40.12,3.28,40.55Zm2.14-3.71a2.57,2.57,0,0,0,0,2.78c.52.73.7-.77.72-1.09a2.63,2.63,0,0,0-.49-1.72C5.58,36.73,5.48,36.76,5.42,36.84ZM2.1,38.7c-.22.33.47.8.7.89.61.25,1.91-.4,1.25-1.07A1.19,1.19,0,0,0,2.1,38.7Zm1.82-1.78a2.92,2.92,0,0,0,.12.83c.48,1.49.89.18,1-.6,0-.47,0-1.49-.41-1.82S4,36.46,3.94,36.62,3.92,36.82,3.92,36.92Zm-2.87.13c-.25.33.44.85.64,1,.61.3,1.88-.29,1.28-1A1.15,1.15,0,0,0,1.05,37.05Zm1.88-1.69a2.59,2.59,0,0,0,.25,1.34c.43.83.75-.73.8-1a2.8,2.8,0,0,0-.31-1.87C3.38,33.52,3,34.9,3,35.06A2.53,2.53,0,0,0,2.93,35.36Zm7.62,11a1.48,1.48,0,0,0,2.1-.69c.36-.77-.87-.7-1.31-.52C11.1,45.3,10.06,46.14,10.55,46.41Zm1.3-2.53a1.83,1.83,0,0,0,.35.64c1,1.13,1-.47.8-1.16-.13-.39-.87-1.63-1.15-.73A2.05,2.05,0,0,0,11.85,43.88ZM8.93,45.53a1.43,1.43,0,0,0,2.19-.76c.2-.51-1.1-.49-1.35-.41S8.47,45.22,8.93,45.53Zm1.53-4A2.08,2.08,0,0,0,11,44.07c.73.55.59-1.12.5-1.45s-.66-1.48-1-1.1ZM7.34,44.18c-.2.43.87.63,1.12.61.5,0,1.69-.91.88-1.33A1.44,1.44,0,0,0,7.34,44.18Zm1.55-2.12a2.09,2.09,0,0,0,.29.71c.87,1.33,1-.39.86-1.08-.08-.37-.69-1.84-1-.92A2.27,2.27,0,0,0,8.89,42.06Zm-3,1,0,.08c0,.17.14.27.27.36a1.31,1.31,0,0,0,2-.6c.23-.49-1-.68-1.27-.62A1.43,1.43,0,0,0,5.91,43.07Zm1.62-2a2.23,2.23,0,0,0,.26.75c.8,1.43,1-.34.88-1-.05-.36-.57-2-1-1A2.41,2.41,0,0,0,7.53,41ZM13.9,48A1.63,1.63,0,0,0,16,47c.33-.83-1-.52-1.38-.31C14.4,46.79,13.38,47.78,13.9,48ZM15,45.33c.18.41,1.11,1.41,1.29.52a1.78,1.78,0,0,0-1.07-2.05.19.19,0,0,0-.24.12A1.82,1.82,0,0,0,15,45.33Zm-2.81,1.92a1.54,1.54,0,0,0,2.09-.84c.34-.8-.93-.61-1.34-.41C12.75,46.1,11.71,47,12.22,47.25Zm1.24-4a1.81,1.81,0,0,0,.72,2.32c.77.41.54-1.09.4-1.45C14.51,43.88,13.68,42.68,13.46,43.21Zm5.75,6.33a1.69,1.69,0,0,0,2.19-1c.15-.46-1.06-.37-1.26-.31a1.56,1.56,0,0,0-1.06,1.12A.2.2,0,0,0,19.21,49.54Zm1-3.85A1.82,1.82,0,0,0,21.38,48c.46.19.3-1,.25-1.21a1.89,1.89,0,0,0-1.16-1.15A.21.21,0,0,0,20.22,45.69Zm-2.86,3.12c-.11.47,1.07.24,1.26.17.41-.16,1.66-1.24.69-1.44A1.65,1.65,0,0,0,17.36,48.81Zm1.17-2.37c.2.36,1.22,1.39,1.39.54a1.73,1.73,0,0,0-1.22-2,.21.21,0,0,0-.25.11A1.56,1.56,0,0,0,18.53,46.44Zm-1.74-.57c.2.39,1.19,1.33,1.35.47a1.69,1.69,0,0,0-1.16-2,.2.2,0,0,0-.24.12A1.62,1.62,0,0,0,16.79,45.87ZM4.54,42a1.27,1.27,0,0,0,2.17-.3c.25-.47-.92-.76-1.21-.72S4.17,41.58,4.54,42ZM2.64,36c.1.16.21.33.33.49s.27.4.41.59a30.75,30.75,0,0,0,2.19,2.77l.18.2c4,4.36,9.23,5.91,12.84,7,2,.59,3.52,1,4.13,1.76l-.15.12c-.56-.67-2.06-1.12-4-1.7l-.7-.21a.18.18,0,0,1,.06.13c0,.58-.76,1.2-1.25,1.35-.13,0-1.16.21-1-.22a1.75,1.75,0,0,1,2-1.34C14,45.88,9.32,44.23,5.61,40.22L5.43,40a32.93,32.93,0,0,1-2.21-2.78l-.41-.6c-.1-.15-.21-.3-.31-.46-.11,0-.28,0-.53-.19a1.45,1.45,0,0,1-.45-.53,2.68,2.68,0,0,1-.26-1.69c.17-.56,1,.42,1.1.61A3,3,0,0,1,2.64,36Z" transform="translate(-1 -1)"/><g class="cls-14"><rect class="cls-15" x="44.15" y="22.75" width="5.59" height="7.57"/></g><polygon class="cls-16" points="47.83 25.51 44.15 24.43 44.15 30.32 47.83 31.4 47.83 25.51"/><g class="cls-17"><rect class="cls-18" x="2.07" y="22.75" width="5.59" height="7.57"/></g><polygon class="cls-16" points="3.98 25.51 7.66 24.43 7.66 30.32 3.98 31.4 3.98 25.51"/><path class="cls-19" d="M27,47.54c-7.38-5.88-19.56-3.89-21.78-16C11,23.89,11.4,16.73,6.33,10.06l4.9-4.81C16.85,6.91,21.3-2.12,27,2.17,32.6-2.12,37,6.91,42.58,5.25l4.9,4.81c-5.07,6.67-4.66,13.83,1.1,21.45C46.36,43.65,34.4,41.66,27,47.54" transform="translate(-1 -1)"/><path class="cls-12" d="M27,46.42a19.64,19.64,0,0,1,1.93-1.23c7.35-4.06,16.63-3.52,18.68-13.46-2.85-3.87-4.94-8.42-4.51-13.34a16.8,16.8,0,0,1,3.19-8.24l-4-3.91a5.76,5.76,0,0,1-1.9.07,13.07,13.07,0,0,1-5.13-2.23c-1.38-.85-3.14-2-4.79-2.17a4.23,4.23,0,0,0-3,1L27,3.29l-.54-.41a4.25,4.25,0,0,0-3-1c-1.67.14-3.45,1.31-4.84,2.17C16.4,5.41,14.1,6.76,11.5,6.24l-4,3.91a16.71,16.71,0,0,1,3.19,8.24c.43,4.92-1.66,9.47-4.51,13.34a11.26,11.26,0,0,0,4.39,7.17c2.72,2,6.36,3,9.52,4.15A27,27,0,0,1,27,46.42" transform="translate(-1 -1)"/><path class="cls-19" d="M30,20.31l6.54,1.5,1.15-2.7-8,.53Zm.05-1.2,8.3-1.68L39,13.58l-9.15,4.69Zm-.66-.93L39.5,11.06V9.24H35.66L28.9,17.61Zm-1-.66,5.26-8.28H30L27.8,17.08Zm-2.74,0L20.38,9.24H24l2.17,7.84Zm1.06,0L25.46,9.24h3l-1.28,8.19Zm-2.07.66L14.5,11.06V9.24h3.84l6.76,8.37Zm-.67,1-8.3-1.68L15,13.63l9.14,4.69ZM24,20.35l-6.54,1.51-1.15-2.7,8,.53Zm.75,1-5.3,3.71L18.12,23,24,20.84Zm4.5-.05L34.55,25l1.33-2.12L30,20.79Z" transform="translate(-1 -1)"/><path class="cls-19" d="M27,16.56A3.94,3.94,0,1,1,23,20.49,3.93,3.93,0,0,1,27,16.56" transform="translate(-1 -1)"/><path class="cls-13" d="M28.48,39.47q.93-.06,1.86-.15v.1h-.1a.65.65,0,0,0-.28.07.37.37,0,0,0-.12.13,1.55,1.55,0,0,0,0,.39v1.77a1.71,1.71,0,0,0,.07.63.49.49,0,0,0,.24.23.74.74,0,0,0,.43.06A1,1,0,0,0,31,42.5a1,1,0,0,0,.31-.41,2.31,2.31,0,0,0,.11-.83V39.8a.66.66,0,0,0-.06-.34.23.23,0,0,0-.12-.12.74.74,0,0,0-.34,0v-.1c.41-.07.83-.14,1.25-.23v.1l-.08,0a.64.64,0,0,0-.25.11.41.41,0,0,0-.15.21,1.14,1.14,0,0,0,0,.31v1.37a3.54,3.54,0,0,1-.09.94,1.35,1.35,0,0,1-.4.59,1.65,1.65,0,0,1-.89.36,1.45,1.45,0,0,1-.72,0,1,1,0,0,1-.49-.4,1.41,1.41,0,0,1-.15-.71V40.09a1.35,1.35,0,0,0,0-.38.23.23,0,0,0-.12-.12.81.81,0,0,0-.31,0ZM28.22,43v.1c-.62,0-1.25,0-1.88,0V43h.12a.58.58,0,0,0,.25-.05.28.28,0,0,0,.11-.13,1.06,1.06,0,0,0,0-.34V40.11a1.19,1.19,0,0,0,0-.35.23.23,0,0,0-.12-.12.43.43,0,0,0-.24-.06h-.12v-.1c.63,0,1.26,0,1.88,0v.1H28.1a.49.49,0,0,0-.25.06.36.36,0,0,0-.11.13,1,1,0,0,0,0,.33v2.37a1.19,1.19,0,0,0,0,.35.45.45,0,0,0,.12.12.43.43,0,0,0,.24,0Zm-4.56-3.73.88,1.23.89,1.19V40.12a.78.78,0,0,0-.09-.44.58.58,0,0,0-.43-.19V39.4l1.19.07v.1a.76.76,0,0,0-.3.06.28.28,0,0,0-.13.15,1.22,1.22,0,0,0,0,.35v3h-.09c-.41-.53-.82-1.06-1.22-1.61s-.81-1.11-1.22-1.67v2.29a.54.54,0,0,0,.47.6l.09,0v.09c-.43-.06-.86-.14-1.28-.23v-.1a.51.51,0,0,0,.41,0,.5.5,0,0,0,.12-.39V39.56a1,1,0,0,0-.08-.11.8.8,0,0,0-.2-.23.65.65,0,0,0-.25-.1V39Z" transform="translate(-1 -1)"/><path class="cls-19" d="M23.74,47.91c.13-.46-.53-.71-.79-.35l-1.27,2.9c-.21.48.32.62.66.31a.72.72,0,0,1,.7-.25Zm2.09.57a.49.49,0,0,0-.88-.39l-1.33,3.38c-.21.54.49.84.86.49a.82.82,0,0,1,.78-.27Zm1,4.7a.88.88,0,0,0-.6-.55.37.37,0,0,1-.17-.42c.22-1.32.47-2.64.7-4h.56c.23,1.33.48,2.65.7,4a.38.38,0,0,1-.17.42.88.88,0,0,0-.6.55A.22.22,0,0,1,26.81,53.18Zm1.4-4.7c-.15-.52.59-.8.88-.39l1.32,3.38c.22.54-.48.84-.86.49a.81.81,0,0,0-.78-.27Zm2.08-.57c-.13-.46.54-.71.79-.35l1.27,2.9c.21.48-.32.62-.66.31a.71.71,0,0,0-.7-.25Z" transform="translate(-1 -1)"/><path class="cls-19" d="M26.75,26.85c-.21,0-.47-.34-.66-.5a.86.86,0,0,0-1.29,0c-.33.32-.55.31-1,0a1.13,1.13,0,0,0-1.18-.09l-.7.53L21,25.48c.41-.36,1.07-1.15,1.62-.64.8.72,1.38.94,2.22.17a.71.71,0,0,1,1.09,0,1.3,1.3,0,0,0,.8.52,1.33,1.33,0,0,0,.8-.56.72.72,0,0,1,1.09,0c.84.77,1.42.59,2.22-.13.55-.51,1.21.28,1.62.64l-.92,1.31-.7-.53a1.13,1.13,0,0,0-1.18.09c-.45.31-.67.32-1,0a.86.86,0,0,0-1.29,0c-.19.16-.4.5-.62.5" transform="translate(-1 -1)"/><path class="cls-19" d="M26.78,28.23a.66.66,0,0,1-.68-.42c-.23-.54-.88-.33-1.17,0-1,1-1.73.36-2.49-.47a5.17,5.17,0,0,0,1.34,1.85c.42.35.78.15,1.13-.17s.77-.29,1.17.1a1,1,0,0,0,.66.36,1.22,1.22,0,0,0,.74-.36c.4-.39.76-.46,1.16-.1s.71.52,1.14.17a5.3,5.3,0,0,0,1.34-1.85c-.76.83-1.49,1.5-2.49.47-.29-.29-.94-.5-1.17,0a.67.67,0,0,1-.68.42" transform="translate(-1 -1)"/><g class="cls-20"><rect class="cls-21" x="3.98" y="25.54" width="15.66" height="8.87"/></g><polygon class="cls-16" points="16.95 29.61 19.64 28.52 19.64 34.42 16.95 35.5 16.95 29.61"/><g class="cls-22"><rect class="cls-23" x="32.17" y="25.54" width="15.66" height="8.87"/></g><polygon class="cls-16" points="34.87 29.61 32.17 28.52 32.17 34.42 34.87 35.5 34.87 29.61"/><g class="cls-24"><rect class="cls-25" x="16.95" y="29.58" width="17.92" height="7.29"/></g><path class="cls-7" d="M32.22,34.75h0L32,34.11l-.25-.63H32l.23,0,.12.4c0,.14.09.27.13.41h0l.13-.43c0-.14.09-.28.14-.42l.21,0,.22,0c-.08.22-.16.44-.25.66l-.24.66v.8h-.21l-.22,0v-.77Zm-1.53.87V33.85l-.46,0v-.3l1.33-.08v.31l-.45,0V35.6h-.42Zm-1.15.05V33.59H30v2.07h-.43ZM28.4,34.53h.12a.26.26,0,0,0,.22-.07.35.35,0,0,0,.06-.24.33.33,0,0,0-.06-.23.32.32,0,0,0-.22-.06H28.4v.6ZM28,35.7V33.63h.63a.71.71,0,0,1,.48.11.5.5,0,0,1,.14.41.55.55,0,0,1-.14.45.65.65,0,0,1-.22.1h0a.33.33,0,0,1,.26.11.45.45,0,0,1,.08.32v.26c0,.09,0,.15,0,.2a.31.31,0,0,0,0,.11h-.43s0-.06,0-.11v-.45a.3.3,0,0,0-.06-.22s-.11-.06-.22-.06H28.4v.85H28Zm-1,0a.58.58,0,0,1-.5-.19.7.7,0,0,1-.11-.26,2.17,2.17,0,0,1,0-.4V34.4a1.28,1.28,0,0,1,0-.36.49.49,0,0,1,.12-.25A.68.68,0,0,1,27,33.6a.65.65,0,0,1,.47.15.61.61,0,0,1,.14.46v.06h-.42v-.07a.42.42,0,0,0-.05-.22.2.2,0,0,0-.17-.08.19.19,0,0,0-.18.11.78.78,0,0,0-.06.36v.49a1.35,1.35,0,0,0,.05.45.22.22,0,0,0,.21.11l.19,0v-.48H27v-.31h.62v1a3,3,0,0,1-.66.08Zm-2-.05h0V33.61l1.05,0v.31h-.62v.55h.6v.3h-.6v.6H26v.3Zm-1.17,0V33.88l-.45,0v-.31l1.33.05v.31h-.45v1.76h-.43ZM22,35.55h-.35V33.45l.31,0,.32,0,.18.88.18.89V33.52H23v2.07H22.7l-.32,0-.18-.9L22,33.79v1.76Zm-1.16-.09V33.38l.21,0,.21,0V35.5l-.21,0Z" transform="translate(-1 -1)"/><path class="cls-7" d="M16,33.43h0l.15-1.1.15-1.1,1.1.11c0,.06,0,.11,0,.17a.88.88,0,0,0,0,.16l-.66-.06c0,.19-.05.39-.07.58l.63.06a1,1,0,0,0,0,.16,1,1,0,0,0,0,.17l-.64-.06c0,.21-.05.42-.08.63l.67.07a.88.88,0,0,0,0,.16,1,1,0,0,0,0,.17L16,33.43m-1.12-.11A.64.64,0,0,1,14.4,33a1.17,1.17,0,0,1-.05-.71c0-.17.05-.35.07-.52a1,1,0,0,1,.27-.62.88.88,0,0,1,1.06.11.62.62,0,0,1,.08.5.13.13,0,0,1,0,.06l-.45-.05a.17.17,0,0,0,0-.07.37.37,0,0,0,0-.24.23.23,0,0,0-.37,0,.9.9,0,0,0-.11.37c0,.18-.05.35-.08.52a1.55,1.55,0,0,0,0,.48A.21.21,0,0,0,15,33h.22l.06-.51-.2,0c0-.11,0-.22,0-.33l.66.09c0,.18,0,.37-.07.55s0,.37-.08.55a2.81,2.81,0,0,1-.71,0Zm-1.5-2.08-.33.95.36.06c0-.17,0-.34,0-.51s0-.33,0-.5Zm-1,1.64.42-1.05c.13-.34.27-.69.41-1l.26,0,.27.05L13.82,32l.09,1.13-.22,0-.22,0c0-.16,0-.32,0-.48L13,32.5l-.16.45-.22,0Zm-.95-1.43h0l.12,0a.37.37,0,0,0,.25,0,.46.46,0,0,0,.09-.24.35.35,0,0,0,0-.26.32.32,0,0,0-.22-.11l-.12,0C11.48,31,11.45,31.24,11.42,31.45Zm-.65,1.12L11,31.49c.05-.36.11-.72.17-1.08l.22,0,.44.08a.77.77,0,0,1,.48.23.55.55,0,0,1,.09.46.58.58,0,0,1-.23.44.68.68,0,0,1-.25.05h0a.35.35,0,0,1,.26.17.52.52,0,0,1,0,.36,2,2,0,0,0,0,.26c0,.1,0,.17,0,.22v.11l-.22,0-.23,0a.47.47,0,0,1,0-.12s0-.12,0-.21,0-.18,0-.27a.36.36,0,0,0,0-.24.35.35,0,0,0-.22-.11l-.13,0c0,.29-.1.59-.14.88l-.23,0Zm-.3-.69a.64.64,0,0,1-.25.45.72.72,0,0,1-.54.05.8.8,0,0,1-.48-.27.69.69,0,0,1-.09-.52c0-.26.09-.52.13-.78s.09-.51.13-.77l.22.05.23.05c-.05.26-.09.52-.14.79s-.08.53-.13.79a.39.39,0,0,0,0,.23.22.22,0,0,0,.17.11.23.23,0,0,0,.19,0,.34.34,0,0,0,.09-.21l.12-.79c0-.27.09-.53.14-.8l.22.05.22,0c0,.26-.08.52-.13.77ZM8,31.65a.19.19,0,0,0,.2,0,.55.55,0,0,0,.1-.29c.05-.29.11-.59.16-.88a.44.44,0,0,0,0-.24.24.24,0,0,0-.16-.11.19.19,0,0,0-.18,0,.34.34,0,0,0-.1.2c0,.3-.1.59-.16.89a.78.78,0,0,0,0,.31A.25.25,0,0,0,8,31.65ZM7.91,32a.78.78,0,0,1-.5-.3.88.88,0,0,1,0-.6l.15-.89a.53.53,0,0,1,.25-.4.79.79,0,0,1,.54,0,.8.8,0,0,1,.48.28.61.61,0,0,1,.1.49l-.15.88a.76.76,0,0,1-.26.53A.68.68,0,0,1,7.91,32ZM7,31S7,31,7,31a.75.75,0,0,1-.23.5.69.69,0,0,1-.54,0,.8.8,0,0,1-.5-.33.94.94,0,0,1,0-.64l.12-.66a.83.83,0,0,1,.26-.55.65.65,0,0,1,.56,0,.74.74,0,0,1,.46.29.66.66,0,0,1,.06.49v0a.13.13,0,0,1,0,.06,3.6,3.6,0,0,1-.44-.12s0,0,0-.06a.56.56,0,0,0,0-.26.18.18,0,0,0-.13-.12.16.16,0,0,0-.19,0,.53.53,0,0,0-.11.29c0,.22-.09.44-.13.66a1.16,1.16,0,0,0,0,.4.23.23,0,0,0,.17.17.16.16,0,0,0,.17-.05.57.57,0,0,0,.1-.27v-.07Z" transform="translate(-1 -1)"/><path class="cls-7" d="M46.34,30.3h0l.12,0c.12,0,.19-.08.21-.14a.37.37,0,0,0,0-.26c0-.12-.07-.19-.13-.21a.27.27,0,0,0-.23,0l-.13,0c.06.2.11.4.16.6m-.15,1.32-.27-1.05c-.08-.35-.17-.7-.25-1l.22-.07.42-.14a.76.76,0,0,1,.52-.05.52.52,0,0,1,.26.37.59.59,0,0,1,0,.5.64.64,0,0,1-.21.17h0a.34.34,0,0,1,.3,0,.46.46,0,0,1,.17.3c0,.08,0,.17.07.26a2,2,0,0,0,.07.2.3.3,0,0,0,0,.1l-.23.08-.22.08-.05-.1A1.89,1.89,0,0,0,47,31a2.5,2.5,0,0,0-.07-.26.29.29,0,0,0-.11-.2.36.36,0,0,0-.25,0l-.13.05c0,.14.07.28.11.42l.12.43-.23.07Zm-.55-.47a.65.65,0,0,1-.06.52.82.82,0,0,1-.48.3.8.8,0,0,1-.56,0,.61.61,0,0,1-.27-.42c-.06-.26-.11-.51-.16-.76S44,30.27,44,30l.22-.05.22-.06c0,.25.11.51.17.77s.11.51.17.77a.34.34,0,0,0,.1.2.25.25,0,0,0,.2,0,.29.29,0,0,0,.17-.12.44.44,0,0,0,0-.23c-.06-.26-.13-.51-.18-.77l-.18-.77.22-.06.22-.06.18.75Zm-2.43,1a.22.22,0,0,0,.18-.13.66.66,0,0,0,0-.31c0-.14-.06-.29-.08-.43l-.09-.44a.34.34,0,0,0-.1-.2.21.21,0,0,0-.19,0,.26.26,0,0,0-.17.11.35.35,0,0,0,0,.23c0,.15,0,.29.08.44s0,.29.08.43a.62.62,0,0,0,.11.29A.22.22,0,0,0,43.21,32.1Zm.07.31a.72.72,0,0,1-.58,0,.76.76,0,0,1-.27-.52c0-.14,0-.29-.08-.43s-.05-.29-.07-.44a.55.55,0,0,1,.09-.48.85.85,0,0,1,.49-.26.79.79,0,0,1,.54,0,.54.54,0,0,1,.26.4l.09.43.09.43a.62.62,0,0,1-.56.88Zm-2.23.43h0l-.19,0-.2,0-.15-1.07c0-.36-.11-.71-.15-1.07l.33-.06.34-.06.33.86c.11.29.23.57.34.86l-.15-.89c0-.3-.09-.6-.14-.9l.19,0,.18,0,.18,1c.06.36.13.71.19,1.06l-.35.07-.34.07c-.12-.29-.24-.58-.35-.87L40.78,31c0,.31.09.61.13.91S41,32.53,41.05,32.84Zm-1.59,0q.15,0,.18-.12a.56.56,0,0,0,0-.31l-.06-.44c0-.15,0-.3-.05-.44a.29.29,0,0,0-.09-.21.21.21,0,0,0-.19-.05.22.22,0,0,0-.17.1.39.39,0,0,0,0,.23c0,.15,0,.29,0,.44s0,.3.05.45a.65.65,0,0,0,.09.29A.21.21,0,0,0,39.46,32.81Zm0,.32a.59.59,0,0,1-.8-.63c0-.15,0-.29-.05-.44s0-.3,0-.45a.59.59,0,0,1,.13-.48.86.86,0,0,1,.5-.22.84.84,0,0,1,.55.07.62.62,0,0,1,.23.43l.06.44.06.44a.82.82,0,0,1-.09.59A.8.8,0,0,1,39.5,33.13Zm-2.57.29-.09-1.1c0-.37-.05-.74-.07-1.11l.23,0,.23,0,0,.46c0,.15,0,.3,0,.45l.44,0c0-.15,0-.3,0-.45l0-.46.23,0,.23,0c0,.36.07.72.1,1.09l.12,1.08-.24,0-.24,0c0-.16,0-.32,0-.47s0-.32,0-.48l-.45,0c0,.16,0,.32,0,.48s0,.32,0,.48l-.23,0Z" transform="translate(-1 -1)"/><path class="cls-13" d="M47.62,39.73a2.65,2.65,0,0,1-.21.78c-.72,1.52-1-.3-.92-1,0-.34.46-2,.9-1.11a2.61,2.61,0,0,1,.23,1.32m2.91.82a1.22,1.22,0,0,1-2.14-.15c-.27-.46.85-.84,1.15-.82S50.88,40.12,50.53,40.55Zm-2.14-3.71a2.57,2.57,0,0,1,0,2.78c-.52.73-.7-.77-.72-1.09a2.63,2.63,0,0,1,.49-1.72C48.23,36.73,48.33,36.76,48.39,36.84Zm3.32,1.86c.23.33-.47.8-.69.89-.62.25-1.92-.4-1.26-1.07A1.19,1.19,0,0,1,51.71,38.7Zm-1.82-1.78a2.61,2.61,0,0,1-.12.83c-.48,1.49-.89.18-1-.6-.05-.47,0-1.49.41-1.82s.64,1.13.65,1.29S49.89,36.82,49.89,36.92Zm2.87.13c.25.33-.44.85-.64,1-.61.3-1.88-.29-1.28-1A1.15,1.15,0,0,1,52.76,37.05Zm-1.88-1.69a2.59,2.59,0,0,1-.25,1.34c-.43.83-.75-.73-.8-1s-.06-1.51.32-1.87.68,1.11.7,1.27A1.39,1.39,0,0,1,50.88,35.36Zm-7.62,11a1.48,1.48,0,0,1-2.1-.69c-.36-.77.87-.7,1.31-.52C42.71,45.3,43.75,46.14,43.26,46.41ZM42,43.88a2,2,0,0,1-.36.64c-1,1.13-1-.47-.8-1.16.13-.39.87-1.63,1.16-.73A2.13,2.13,0,0,1,42,43.88Zm2.91,1.65a1.43,1.43,0,0,1-2.19-.76c-.2-.51,1.1-.49,1.35-.41S45.34,45.22,44.88,45.53Zm-1.53-4a2.08,2.08,0,0,1-.51,2.51c-.73.55-.59-1.12-.5-1.45s.66-1.48,1-1.1Zm3.12,2.62c.2.43-.87.63-1.12.61-.5,0-1.69-.91-.88-1.33A1.44,1.44,0,0,1,46.47,44.18Zm-1.55-2.12a2.09,2.09,0,0,1-.29.71c-.87,1.33-1-.39-.86-1.08.08-.37.69-1.84,1-.92A2.36,2.36,0,0,1,44.92,42.06Zm3,1a.24.24,0,0,1,0,.08c0,.17-.14.27-.26.36a1.31,1.31,0,0,1-2-.6c-.23-.49,1-.68,1.27-.62A1.43,1.43,0,0,1,47.9,43.07Zm-1.62-2a2.23,2.23,0,0,1-.26.75c-.8,1.43-1-.34-.88-1,0-.36.57-2,1-1A2.41,2.41,0,0,1,46.28,41ZM39.91,48a1.63,1.63,0,0,1-2.09-1c-.33-.83,1-.52,1.38-.31C39.41,46.79,40.43,47.78,39.91,48Zm-1.13-2.64c-.18.41-1.11,1.41-1.29.52a1.78,1.78,0,0,1,1.07-2.05.19.19,0,0,1,.24.12A1.82,1.82,0,0,1,38.78,45.33Zm2.82,1.92a1.55,1.55,0,0,1-2.1-.84c-.34-.8.93-.61,1.34-.41C41.07,46.1,42.1,47,41.6,47.25Zm-1.24-4a1.83,1.83,0,0,1-.72,2.32c-.78.41-.55-1.09-.41-1.45C39.3,43.88,40.13,42.68,40.36,43.21ZM34.6,49.54a1.69,1.69,0,0,1-2.19-1c-.15-.46,1.06-.37,1.26-.31a1.56,1.56,0,0,1,1.06,1.12A.2.2,0,0,1,34.6,49.54Zm-1-3.85A1.82,1.82,0,0,1,32.43,48c-.46.19-.3-1-.24-1.21a1.87,1.87,0,0,1,1.15-1.15A.21.21,0,0,1,33.59,45.69Zm2.87,3.12c.1.47-1.08.24-1.27.17-.41-.16-1.66-1.24-.69-1.44A1.67,1.67,0,0,1,36.46,48.81Zm-1.18-2.37c-.2.36-1.22,1.39-1.39.54a1.73,1.73,0,0,1,1.22-2,.21.21,0,0,1,.25.11A1.56,1.56,0,0,1,35.28,46.44ZM37,45.87c-.2.39-1.19,1.33-1.35.47a1.69,1.69,0,0,1,1.16-2,.2.2,0,0,1,.24.12A1.62,1.62,0,0,1,37,45.87ZM49.27,42a1.27,1.27,0,0,1-2.17-.3c-.25-.47.92-.76,1.21-.72S49.64,41.58,49.27,42ZM51.17,36l-.32.49-.42.59a30.75,30.75,0,0,1-2.19,2.77l-.18.2c-4,4.36-9.23,5.91-12.84,7-2,.59-3.52,1-4.13,1.76l.15.12c.56-.67,2.06-1.12,4-1.7L36,47a.18.18,0,0,0-.06.13c0,.58.76,1.2,1.25,1.35.13,0,1.16.21,1.05-.22a1.75,1.75,0,0,0-2-1.34c3.55-1.08,8.23-2.73,11.94-6.74,0-.06.12-.13.18-.21a32.93,32.93,0,0,0,2.21-2.78l.41-.6c.1-.15.21-.3.31-.46.12,0,.29,0,.53-.19a1.45,1.45,0,0,0,.45-.53,2.62,2.62,0,0,0,.26-1.69c-.17-.56-1,.42-1.1.61A3,3,0,0,0,51.17,36Z" transform="translate(-1 -1)"/></g></g></g></svg>